<svg version="1.1" xmlns="http://www.w3.org/2000/svg" xmlns:xlink="http://www.w3.org/1999/xlink" width="42.88784" height="49.91992" viewBox="0,0,42.88784,49.91992"><g transform="translate(-218.55608,-155.04004)"><g data-paper-data="{&quot;isPaintingLayer&quot;:true}" fill-rule="nonzero" stroke="none" stroke-width="0" stroke-linecap="butt" stroke-linejoin="miter" stroke-miterlimit="10" stroke-dasharray="" stroke-dashoffset="0" style="mix-blend-mode: normal"><path d="M240,155.04004c15.69583,0 21.44392,9.98767 21.44392,21.69466c0,6.10646 -15.77825,28.22526 -21.44392,28.22526c-7.44003,0 -21.44392,-24.45268 -21.44392,-28.22526c0,-10.14719 5.7481,-21.69466 21.44392,-21.69466z" fill="#00ffb3"/><g fill="#000000"><g><path d="M230.6463,168.22665c4.73322,0 7.91286,4.34966 7.91286,9.90033c0,5.55067 -3.19549,9.90033 -7.91286,9.90033c-2.44003,0 -7.91286,-7.35122 -7.91286,-9.90033c0,-5.28033 3.17964,-9.90033 7.91286,-9.90033z"/><path d="M257.26656,178.01587c0,2.5491 -5.47283,9.90033 -7.91286,9.90033c-4.71737,0 -7.91286,-4.34966 -7.91286,-9.90033c0,-5.55067 3.17965,-9.90033 7.91286,-9.90033c4.73322,0 7.91286,4.62 7.91286,9.90033z" data-paper-data="{&quot;index&quot;:null}"/></g><path d="M233.28572,193.46621c0,-3.7871 13.42857,-3.7871 13.42857,0c0,1.83567 -4.80352,6.85714 -6.71429,6.85714c-2.48032,0 -6.71429,-5.60313 -6.71429,-6.85714z"/></g></g></g></svg>
