<svg version="1.1" xmlns="http://www.w3.org/2000/svg" xmlns:xlink="http://www.w3.org/1999/xlink" width="37.4434" height="49.91992" viewBox="0,0,37.4434,49.91992"><g transform="translate(-221.2783,-155.04004)"><g data-paper-data="{&quot;isPaintingLayer&quot;:true}" fill-rule="nonzero" stroke="none" stroke-width="0" stroke-linecap="butt" stroke-linejoin="miter" stroke-miterlimit="10" stroke-dasharray="" stroke-dashoffset="0" style="mix-blend-mode: normal"><path d="M240,155.04004c13.70331,0 18.7217,9.98767 18.7217,21.69466c0,11.70699 -8.38199,28.22526 -18.7217,28.22526c-10.33971,0 -18.7217,-18.07807 -18.7217,-28.22526c0,-10.14719 5.0184,-21.69466 18.7217,-21.69466z" fill="#00ffb3"/><g fill="#338069"><g><path d="M231.42845,168.77026c4.45622,0 5.94394,5.06212 5.94394,10c0,4.93788 -1.50056,10 -5.94394,10c-4.44338,0 -5.94394,-5.38039 -5.94394,-10c0,-4.61961 1.48772,-10 5.94394,-10z"/><path d="M254.5155,178.77026c0,4.61961 -1.50055,10 -5.94394,10c-4.44338,0 -5.94394,-5.06213 -5.94394,-10c0,-4.93787 1.48772,-10 5.94394,-10c4.45622,0 5.94394,5.38039 5.94394,10z" data-paper-data="{&quot;index&quot;:null}"/></g><path d="M243.92635,192.33841c0,1.42181 -2.35878,6.60562 -3.92634,6.60562c-1.7999,0 -3.92634,-5.34406 -3.92634,-6.60562c0,-3.26177 7.85269,-3.05154 7.85269,0z" data-paper-data="{&quot;index&quot;:null}"/></g></g></g></svg>